<svg width="25" height="25" viewBox="0 0 25 25" fill="none" xmlns="http://www.w3.org/2000/svg">
<path fill-rule="evenodd" clip-rule="evenodd" d="M22.4345 8.20612C22.3409 7.49551 22.0695 6.81999 21.6455 6.24213C21.12 5.71277 20.4073 5.4114 19.6615 5.40313C16.8945 5.20313 12.7355 5.20312 12.7355 5.20312C12.7355 5.20312 8.57847 5.20313 5.80747 5.40313C5.06197 5.41166 4.34972 5.71301 3.82447 6.24213C3.39761 6.81889 3.12563 7.4954 3.03447 8.20713C2.9106 9.27145 2.84384 10.3417 2.83447 11.4131V12.9131C2.84384 13.9846 2.9106 15.0548 3.03447 16.1191C3.12847 16.8311 3.39847 17.5091 3.81847 18.0911C4.42247 18.6271 5.19847 18.9281 6.00547 18.9391C7.58847 19.0901 12.7365 19.1391 12.7365 19.1391C12.7365 19.1391 16.8975 19.1391 19.6645 18.9391C20.4108 18.9308 21.1239 18.6291 21.6495 18.0991C22.0714 17.5199 22.342 16.8445 22.4365 16.1341C22.5603 15.0698 22.6271 13.9996 22.6365 12.9281V11.4121C22.6246 10.3407 22.5572 9.27058 22.4345 8.20612ZM10.7425 14.7601V9.14012L16.1425 11.9591L10.7425 14.7601Z" fill="white"/>
</svg>
