<svg width="25" height="19" viewBox="0 0 25 19" fill="none" xmlns="http://www.w3.org/2000/svg">
<g id="Frame" clip-path="url(#clip0_399_13146)">
<g id="Group">
<path id="Vector" d="M24.6319 7.71933C24.4764 8.09046 24.1859 8.35251 23.9102 8.62747C23.5239 9.01215 23.1428 9.40135 22.756 9.78474C22.2798 10.2566 21.6596 10.2553 21.1795 9.78603C21.0825 9.69115 20.9823 9.60079 20.8833 9.50784C20.74 9.33422 20.5928 9.16512 20.4026 9.04119C20.3891 8.97213 20.3325 8.93534 20.2882 8.89081C19.0022 7.59928 17.7156 6.30776 16.4284 5.01753C16.3841 4.97299 16.3288 4.93878 16.2793 4.90006C16.1514 4.71159 15.9927 4.55475 15.8076 4.42437C15.7517 4.3566 15.699 4.28689 15.6399 4.22235C15.2581 3.80346 15.2267 3.18577 15.6122 2.77592C16.1617 2.19115 16.7279 1.62058 17.3114 1.07002C17.7336 0.671786 18.3538 0.718903 18.7831 1.14683C19.6867 2.04786 20.5851 2.9547 21.4854 3.85896C22.3183 4.69481 23.1486 5.53323 23.9847 6.36585C24.2444 6.62467 24.5072 6.87768 24.6338 7.23525C24.6319 7.39726 24.6319 7.55797 24.6319 7.71933ZM21.9816 9.45621C22.13 9.45105 22.2309 9.36198 22.3293 9.26322C22.7932 8.79593 23.2585 8.32992 23.7225 7.86262C24.0445 7.53861 24.0438 7.38629 23.718 7.05905C22.132 5.46481 20.5459 3.87058 18.9598 2.27635C18.7445 2.06012 18.5331 1.84003 18.3133 1.62833C18.1051 1.42759 17.9033 1.42372 17.7009 1.62381C17.1816 2.13758 16.6649 2.65522 16.154 3.17803C15.9651 3.37101 15.9715 3.57691 16.1579 3.77635C16.3057 3.93448 16.4631 4.08487 16.6161 4.23848C18.2818 5.9121 19.9482 7.58508 21.6133 9.25871C21.7162 9.36327 21.8203 9.46202 21.9816 9.45621Z" fill="#222222"/>
<path id="Vector_2" d="M15.8063 4.42383C15.992 4.55421 16.1507 4.71105 16.278 4.89952C16.1597 5.01957 16.0318 5.13252 15.9258 5.26225C15.7536 5.47202 15.5447 5.5456 15.2741 5.54496C14.6013 5.54431 13.9284 5.55851 13.2562 5.59143C12.7415 5.6166 12.2003 5.67404 11.8064 6.02C11.1991 6.55378 10.6477 7.15339 10.086 7.73816C9.83987 7.9944 9.85915 8.34035 10.1021 8.60821C10.2203 8.73923 10.3469 8.86251 10.4748 8.9845C10.7653 9.26204 11.1233 9.26462 11.4163 8.98644C11.6142 8.79861 11.8012 8.59982 11.9953 8.40748C12.6206 7.78721 13.3269 7.6678 14.1277 8.04345C14.5775 8.25451 14.9464 8.57335 15.2941 8.9206C16.2259 9.85068 17.1603 10.7782 18.087 11.7141C18.213 11.8412 18.2702 11.8328 18.3653 11.6876C18.5587 11.3926 18.7682 11.1073 18.9771 10.8227C19.427 10.2089 19.8132 9.54345 20.4019 9.0413C20.5927 9.16522 20.7399 9.33433 20.8826 9.50795C20.0439 10.3083 19.4919 11.3287 18.7952 12.2382C18.7323 12.3201 18.7522 12.366 18.8036 12.4415C19.1982 13.0211 19.1423 13.571 18.6506 14.0706C18.3672 14.3584 18.0877 14.6521 17.6475 14.6721C17.5504 14.6766 17.5639 14.7418 17.5485 14.8031C17.3595 15.5344 16.9071 16.0036 16.1713 16.1805C16.0588 16.2076 16.0408 16.2644 16.026 16.3606C15.9361 16.9402 15.2645 17.6127 14.6932 17.7031C14.5152 17.7315 14.3397 17.7115 14.1726 17.6495C14.0756 17.6134 14.0383 17.6289 13.9953 17.7276C13.8352 18.0929 13.539 18.3498 13.235 18.5822C12.8385 18.8855 12.2652 18.8571 11.8732 18.5376C11.7646 18.4492 11.6939 18.4324 11.5628 18.4957C11.0969 18.719 10.6548 18.6545 10.2737 18.3059C10.0269 18.08 9.75697 17.8657 9.63423 17.5346C9.5931 17.4236 9.52433 17.4688 9.46007 17.4862C8.98322 17.6179 8.58028 17.4978 8.23132 17.148C7.93441 16.8505 7.62465 16.5658 7.60794 16.1024C7.60473 16.0159 7.54304 16.032 7.49034 16.0217C6.82005 15.8875 6.23845 15.315 6.11249 14.6482C6.08678 14.5133 6.00838 14.5127 5.91455 14.4914C5.27254 14.3449 4.87281 13.9053 4.63632 13.3289C4.47244 12.9294 4.59583 12.5383 4.8831 12.2104C4.89916 12.1923 4.91651 12.1755 4.93322 12.1581C5.07075 12.0129 5.29247 11.8838 5.32331 11.7192C5.35737 11.5359 5.1408 11.3649 5.02769 11.1932C4.63889 10.6058 4.30214 9.97783 3.75781 9.5086C3.90048 9.33562 4.04636 9.16587 4.23723 9.04388C4.77834 9.48278 5.10867 10.0863 5.48526 10.6536C5.6048 10.8343 5.70633 11.139 5.85157 11.1622C6.03794 11.1919 6.17868 10.9027 6.33421 10.7478C6.69345 10.3896 7.1266 10.2425 7.58416 10.4393C8.1362 10.6775 8.55457 11.0867 8.6966 11.7095C8.71909 11.8089 8.72423 11.8677 8.85533 11.8909C9.49798 12.0071 10.0886 12.6132 10.2075 13.2605C10.2229 13.3431 10.2447 13.3838 10.3321 13.4038C11.095 13.5749 11.55 14.0596 11.7273 14.8141C11.7473 14.8974 11.7794 14.9116 11.8514 14.918C12.1791 14.949 12.4362 15.1142 12.6598 15.3479C13.0596 15.7648 13.4696 16.1728 13.8667 16.5923C14.4078 17.1648 14.6135 17.1712 15.154 16.6129C15.4432 16.3141 15.4419 16.0837 15.1456 15.7848C14.3269 14.9574 13.5068 14.1306 12.6881 13.3038C12.6373 13.2528 12.5827 13.2037 12.5409 13.145C12.4323 12.992 12.4445 12.8371 12.5763 12.7087C12.708 12.5802 12.8623 12.5738 13.012 12.6842C13.0698 12.7268 13.1187 12.7816 13.1695 12.8326C13.9933 13.6549 14.8172 14.4778 15.6411 15.3001C15.9322 15.5906 16.1713 15.5906 16.4663 15.3001C16.5292 15.2382 16.5916 15.1755 16.6533 15.1123C16.956 14.8031 16.956 14.5721 16.6533 14.2668C15.8506 13.4567 15.0479 12.6474 14.2453 11.8373C14.1887 11.7805 14.127 11.7257 14.084 11.6598C13.9831 11.5049 13.9972 11.35 14.1328 11.2242C14.26 11.1054 14.4085 11.1067 14.5518 11.1996C14.6045 11.2339 14.6482 11.2842 14.6932 11.3294C15.4432 12.0781 16.2086 12.812 16.9367 13.582C17.5421 14.2216 17.7329 14.0564 18.1924 13.5671C18.4533 13.2896 18.4566 13.0359 18.1873 12.7668C17.0305 11.6076 15.8718 10.449 14.7112 9.29366C14.4432 9.0271 14.1521 8.78764 13.8031 8.63015C13.2871 8.3978 12.8931 8.46557 12.4882 8.86251C12.2762 9.07034 12.0737 9.2885 11.8572 9.49181C11.327 9.99009 10.5629 9.98945 10.0333 9.4931C9.89257 9.36143 9.75697 9.22396 9.62459 9.0839C9.10532 8.53398 9.10468 7.76462 9.62908 7.22052C9.99154 6.84487 10.3649 6.4802 10.7312 6.10842C10.7846 6.05421 10.8623 6.01613 10.8765 5.90769C10.4864 5.82443 10.1021 5.70632 9.71006 5.66694C9.13681 5.6095 8.70302 5.3481 8.35985 4.9021C8.48388 4.71169 8.64775 4.56131 8.82577 4.42512C9.11689 4.81948 9.52754 4.96148 9.99411 5.0299C10.4587 5.09831 10.9176 5.21385 11.3765 5.3197C11.4851 5.34487 11.5731 5.33842 11.6727 5.2913C12.1843 5.04732 12.7267 4.92275 13.2916 4.90533C13.859 4.88725 14.4265 4.86402 14.9939 4.87305C15.2639 4.87757 15.474 4.8169 15.6353 4.59551C15.6829 4.52968 15.7491 4.47998 15.8063 4.42383ZM7.21785 11.0447C7.05141 11.0325 6.9293 11.1157 6.81812 11.2274C6.4396 11.6082 6.05915 11.9877 5.67934 12.3679C5.09581 12.9527 5.0971 13.0682 5.69412 13.642C5.95504 13.8931 6.20953 13.8937 6.46723 13.6381C6.85411 13.2534 7.22428 12.852 7.62465 12.4821C8.27437 11.8825 8.07965 11.6889 7.59573 11.2242C7.48905 11.1222 7.37659 11.0357 7.21785 11.0447ZM9.54297 13.3857C9.54811 13.2586 9.50441 13.1476 9.41894 13.0566C9.30326 12.9339 9.18823 12.8107 9.06291 12.699C8.82963 12.4918 8.58735 12.4996 8.36177 12.7235C7.88428 13.1979 7.41129 13.6775 6.93509 14.1538C6.84704 14.2416 6.78599 14.3384 6.77571 14.4669C6.74936 14.7999 7.29304 15.3653 7.62401 15.3459C7.74997 15.3388 7.85215 15.2833 7.94019 15.1943C8.4254 14.705 8.91124 14.2158 9.39901 13.7285C9.49606 13.6323 9.54811 13.5226 9.54297 13.3857ZM10.2165 14.0828C10.0693 14.0647 9.95298 14.1583 9.84244 14.27C9.45878 14.6573 9.07319 15.0426 8.68824 15.4292C8.12206 15.9978 8.12335 16.0985 8.70431 16.6659C8.98065 16.9363 9.23835 16.9376 9.51598 16.6601C9.89 16.2857 10.2422 15.8881 10.6336 15.5331C11.3713 14.8644 11.0352 14.6766 10.5461 14.1958C10.4632 14.1144 10.3566 14.0789 10.2165 14.0828ZM12.5647 16.4271C12.5724 16.2896 12.5152 16.1766 12.4253 16.0798C12.3269 15.9746 12.2267 15.8707 12.1219 15.7719C11.8655 15.528 11.6175 15.526 11.3662 15.7719C11.1258 16.0069 10.8906 16.2476 10.6535 16.4858C10.0706 17.0712 10.0719 17.1913 10.6657 17.7573C10.9305 18.0097 11.1817 18.0142 11.4407 17.7599C11.7608 17.4456 12.0737 17.1248 12.3906 16.8079C12.4966 16.702 12.5705 16.5833 12.5647 16.4271ZM13.1785 16.8414C12.9979 17.2248 12.6727 17.4559 12.4118 17.7444C12.3514 17.8109 12.219 17.8664 12.255 17.9555C12.3006 18.0678 12.4362 18.0987 12.5615 18.1058C12.7061 18.1136 12.8276 18.0632 12.9297 17.9638C13.0274 17.869 13.1251 17.7741 13.2189 17.676C13.4914 17.3926 13.4856 17.1551 13.1785 16.8414Z" fill="#222222"/>
<path id="Vector_3" d="M4.23863 9.04438C4.04776 9.16701 3.90188 9.33676 3.75921 9.50909C3.64867 9.61301 3.53813 9.71693 3.42824 9.82149C3.00602 10.2236 2.39293 10.2597 1.97263 9.8615C1.38975 9.30965 0.823571 8.73909 0.27346 8.15496C-0.0986354 7.75931 -0.0844971 7.1455 0.284385 6.74855C0.628847 6.37807 0.991946 6.02566 1.35247 5.67067C1.51378 5.51189 1.704 5.50931 1.84346 5.64679C1.97842 5.77975 1.98099 5.98564 1.82996 6.14248C1.51249 6.4723 1.18474 6.7918 0.864058 7.11839C0.619207 7.36753 0.618565 7.55083 0.865343 7.80126C1.3499 8.29309 1.83639 8.78298 2.32481 9.27157C2.58058 9.52717 2.76695 9.52717 3.02337 9.26964C4.83179 7.45531 6.63893 5.64033 8.44543 3.82407C8.69863 3.56976 8.69542 3.37936 8.439 3.12054C7.95894 2.63517 7.47759 2.15174 6.99432 1.66959C6.73662 1.41206 6.55217 1.41206 6.29576 1.66766C5.89217 2.07041 5.49051 2.4751 5.08821 2.87915C5.04258 2.92433 5.00081 2.97596 4.9494 3.01211C4.79259 3.12248 4.63064 3.13022 4.49312 2.98758C4.35559 2.84494 4.3498 2.67261 4.48669 2.53319C4.98089 2.02781 5.46866 1.51533 5.98921 1.039C6.36966 0.691108 6.97118 0.722089 7.35099 1.08741C7.91781 1.6328 8.47435 2.18982 9.01546 2.76103C9.41391 3.18186 9.39141 3.7976 9.00004 4.22553C8.94091 4.29007 8.885 4.35849 8.82781 4.42562C8.64979 4.56245 8.48527 4.71284 8.36188 4.9026C8.30597 4.94713 8.24492 4.98586 8.19544 5.0362C6.91977 6.31611 5.64475 7.59666 4.37037 8.87785C4.3196 8.92691 4.25598 8.96757 4.23863 9.04438Z" fill="#222222"/>
</g>
</g>
<defs>
<clipPath id="clip0_399_13146">
<rect width="24.6316" height="18" fill="white" transform="translate(0 0.794922)"/>
</clipPath>
</defs>
</svg>
