<svg width="28" height="19" viewBox="0 0 28 19" fill="none" xmlns="http://www.w3.org/2000/svg">
<g id="Frame" clip-path="url(#clip0_401_13170)">
<g id="Group">
<path id="Vector" d="M0 6.05458C0.133203 5.73739 0.372749 5.6546 0.700548 5.65627C2.69585 5.66802 4.69115 5.66243 6.68645 5.66243C6.75004 5.66243 6.81417 5.66131 6.87776 5.66467C7.15732 5.68089 7.35521 5.87165 7.36233 6.12955C7.36946 6.3852 7.17486 6.59163 6.89969 6.61792C6.82733 6.62464 6.75388 6.62408 6.68097 6.62408C4.68567 6.62464 2.69037 6.61904 0.695067 6.62911C0.368363 6.63135 0.127721 6.54352 0 6.22185C0 6.16591 0 6.10997 0 6.05458Z" fill="#222222"/>
<path id="Vector_2" d="M4.36862 15.2794C4.53143 14.4979 4.8817 13.8635 5.48194 13.384C7.14122 12.0588 9.60465 12.8772 10.1577 14.9521C10.2312 15.2268 10.3436 15.2861 10.5996 15.285C13.3711 15.276 16.1431 15.2766 18.9146 15.2844C19.1432 15.285 19.2347 15.2273 19.2967 14.9845C19.6409 13.6414 20.8315 12.7312 22.1822 12.7469C23.5454 12.7625 24.7097 13.6867 25.0342 15.031C25.0808 15.2234 25.1477 15.2894 25.3401 15.2844C25.8324 15.2715 26.3246 15.2749 26.8169 15.2827C26.9841 15.2855 27.0378 15.2268 27.0372 15.0573C27.0323 13.7823 27.0378 12.508 27.0279 11.2331C27.0274 11.1374 26.9517 11.0026 26.8711 10.9533C26.2002 10.5416 25.5216 10.1422 24.8402 9.74779C24.7508 9.69632 24.6341 9.67395 24.5299 9.67339C22.8613 9.66891 21.1927 9.67451 19.5247 9.665C19.2994 9.66388 19.2418 9.74164 19.2517 9.95366C19.2654 10.2412 19.2605 10.5304 19.2512 10.8185C19.2418 11.1128 19.0768 11.2795 18.7918 11.2974C18.7008 11.3035 18.6093 11.3007 18.5183 11.3007C13.905 11.3007 9.29165 11.3007 4.67833 11.3007C4.56925 11.3007 4.45852 11.3069 4.35053 11.2924C4.11537 11.2605 3.97121 11.1223 3.94599 10.8767C3.92023 10.6227 4.02219 10.4353 4.26721 10.3648C4.39603 10.3279 4.53691 10.324 4.6723 10.324C9.07622 10.3223 13.4796 10.3223 17.8835 10.3223C18.009 10.3223 18.134 10.3223 18.2837 10.3223C18.2897 10.1948 18.2985 10.0958 18.2985 9.99673C18.299 7.36353 18.2957 4.73032 18.3045 2.09712C18.3056 1.83251 18.2371 1.75028 17.9707 1.7514C15.1169 1.76035 12.2632 1.75755 9.4095 1.75643C8.98906 1.75643 8.79501 1.5914 8.81036 1.25239C8.82133 1.00568 8.94959 0.85464 9.18695 0.811565C9.28452 0.793663 9.38648 0.795341 9.48679 0.795341C12.5143 0.794782 15.5412 0.794782 18.5682 0.795341C18.6591 0.795341 18.7512 0.794782 18.8411 0.80653C19.0927 0.839536 19.2347 0.988342 19.2501 1.24736C19.2605 1.42357 19.2539 1.60091 19.2555 1.77769C19.2599 2.33152 19.2051 2.25935 19.7451 2.26271C20.3376 2.26606 20.9307 2.28005 21.5227 2.25879C22.1427 2.23642 22.5916 2.51333 22.8504 3.05821C23.171 3.73399 23.4446 4.43383 23.7263 5.12863C24.1961 6.28664 24.6511 7.45136 25.1269 8.60713C25.1844 8.74698 25.3105 8.88348 25.4393 8.96236C26.158 9.40151 26.8837 9.82946 27.6155 10.2462C27.8858 10.4001 28.002 10.6043 28.0003 10.9203C27.9921 12.4834 27.9976 14.047 27.996 15.61C27.9954 16.0894 27.8244 16.26 27.3491 16.2606C26.6837 16.2617 26.0182 16.2662 25.3527 16.2572C25.1718 16.255 25.0852 16.2947 25.0364 16.4978C24.7081 17.86 23.5378 18.7875 22.1663 18.7925C20.7904 18.7976 19.6124 17.8633 19.2775 16.4849C19.2364 16.316 19.1766 16.2572 19.0072 16.2578C16.1628 16.2623 13.3179 16.2645 10.4735 16.2539C10.2312 16.2528 10.218 16.3943 10.1747 16.5537C9.84474 17.7733 8.79337 18.6762 7.64388 18.7814C6.09752 18.9223 5.0001 17.9819 4.58021 16.9593C4.52759 16.8312 4.46291 16.6997 4.44975 16.5655C4.42344 16.2975 4.28695 16.2449 4.04795 16.2556C3.66862 16.2723 3.4521 16.0737 3.45813 15.7605C3.46361 15.4601 3.6763 15.285 4.04137 15.281C4.14004 15.2788 4.23926 15.2794 4.36862 15.2794ZM24.1057 8.68992C24.0536 8.54503 24.0251 8.45888 23.9911 8.37441C23.6436 7.50674 23.296 6.63908 22.9469 5.77197C22.6706 5.085 22.3905 4.40026 22.1158 3.71273C21.981 3.3754 21.7732 3.20869 21.3862 3.22995C20.7778 3.26352 20.1655 3.25065 19.5554 3.23331C19.3098 3.22603 19.249 3.30939 19.2506 3.54994C19.2599 5.15884 19.2616 6.76718 19.2495 8.37608C19.2473 8.64629 19.3416 8.69663 19.5806 8.69496C20.9839 8.68544 22.3872 8.68992 23.7899 8.68992C23.8793 8.68992 23.9686 8.68992 24.1057 8.68992ZM9.31577 15.7773C9.31796 14.6349 8.41788 13.7063 7.3106 13.7074C6.20606 13.7091 5.29392 14.645 5.29556 15.7745C5.29721 16.8911 6.194 17.8136 7.29415 17.8303C8.39486 17.8477 9.31412 16.914 9.31577 15.7773ZM22.163 17.8309C23.2631 17.8264 24.1901 16.8732 24.1786 15.7582C24.1671 14.6316 23.2313 13.69 22.1405 13.7085C21.0425 13.727 20.143 14.6517 20.1397 15.7672C20.1364 16.8866 21.0667 17.8354 22.163 17.8309Z" fill="#222222"/>
<path id="Vector_3" d="M6.09068 3.37976C7.12944 3.37976 8.16765 3.37809 9.20642 3.38088C9.54627 3.382 9.73265 3.54759 9.73977 3.84073C9.7458 4.09806 9.62685 4.26645 9.38018 4.32631C9.29302 4.34757 9.19984 4.35316 9.10994 4.35316C7.09655 4.35484 5.08316 4.35428 3.06977 4.35372C2.98809 4.35372 2.90477 4.3526 2.82529 4.33694C2.56272 4.28435 2.4032 4.07904 2.42075 3.82562C2.43829 3.57444 2.62521 3.38648 2.89381 3.38368C3.63163 3.37641 4.36945 3.37976 5.10783 3.3792C5.43508 3.37976 5.76288 3.37976 6.09068 3.37976Z" fill="#222222"/>
<path id="Vector_4" d="M4.95885 8.89888C3.91132 8.89832 2.86379 8.90112 1.81625 8.8972C1.47913 8.89608 1.29276 8.69749 1.31359 8.38253C1.32894 8.14981 1.44953 8.00045 1.67428 7.95737C1.78939 7.93499 1.90999 7.93443 2.02784 7.93443C3.98642 7.93331 5.94499 7.93331 7.90302 7.93443C8.0121 7.93443 8.12228 7.93443 8.22972 7.95122C8.47968 7.98982 8.63646 8.18282 8.63152 8.43176C8.62659 8.68909 8.4457 8.88825 8.18258 8.89496C7.75447 8.90559 7.32635 8.9 6.89824 8.9C6.25251 8.89944 5.60568 8.89944 4.95885 8.89888Z" fill="#222222"/>
</g>
</g>
<defs>
<clipPath id="clip0_401_13170">
<rect width="28" height="18" fill="white" transform="translate(0 0.794922)"/>
</clipPath>
</defs>
</svg>
