<svg width="25" height="25" viewBox="0 0 25 25" fill="none" xmlns="http://www.w3.org/2000/svg">
<g id="ic:baseline-tiktok">
<path id="Vector" d="M17.3343 5.98797C16.6507 5.20759 16.274 4.2054 16.2743 3.16797H13.1843V15.568C13.1605 16.239 12.8772 16.8746 12.3941 17.3409C11.9109 17.8072 11.2657 18.0679 10.5943 18.068C9.17429 18.068 7.99429 16.908 7.99429 15.468C7.99429 13.748 9.65429 12.458 11.3643 12.988V9.82797C7.91429 9.36797 4.89429 12.048 4.89429 15.468C4.89429 18.798 7.65429 21.168 10.5843 21.168C13.7243 21.168 16.2743 18.618 16.2743 15.468V9.17797C17.5273 10.0778 19.0317 10.5606 20.5743 10.558V7.46797C20.5743 7.46797 18.6943 7.55797 17.3343 5.98797Z" fill="white"/>
</g>
</svg>
