<svg width="25" height="25" viewBox="0 0 25 25" fill="none" xmlns="http://www.w3.org/2000/svg">
<path d="M13.7625 2.16797C14.8875 2.17097 15.4585 2.17697 15.9515 2.19097L16.1455 2.19797C16.3695 2.20597 16.5905 2.21597 16.8575 2.22797C17.9215 2.27797 18.6475 2.44597 19.2845 2.69297C19.9445 2.94697 20.5005 3.29097 21.0565 3.84597C21.5651 4.3457 21.9586 4.95044 22.2095 5.61797C22.4565 6.25497 22.6245 6.98097 22.6745 8.04597C22.6865 8.31197 22.6965 8.53297 22.7045 8.75797L22.7105 8.95197C22.7255 9.44397 22.7315 10.015 22.7335 11.14L22.7345 11.886V13.196C22.7369 13.9254 22.7292 14.6548 22.7115 15.384L22.7055 15.578C22.6975 15.803 22.6875 16.024 22.6755 16.29C22.6255 17.355 22.4555 18.08 22.2095 18.718C21.9586 19.3855 21.5651 19.9902 21.0565 20.49C20.5567 20.9987 19.952 21.3922 19.2845 21.643C18.6475 21.89 17.9215 22.058 16.8575 22.108L16.1455 22.138L15.9515 22.144C15.4585 22.158 14.8875 22.165 13.7625 22.167L13.0165 22.168H11.7075C10.9777 22.1705 10.248 22.1629 9.51846 22.145L9.32446 22.139C9.08707 22.13 8.84973 22.1196 8.61246 22.108C7.54846 22.058 6.82246 21.89 6.18446 21.643C5.51729 21.392 4.9129 20.9985 4.41346 20.49C3.9044 19.9903 3.51056 19.3856 3.25946 18.718C3.01246 18.081 2.84446 17.355 2.79446 16.29L2.76446 15.578L2.75946 15.384C2.74102 14.6548 2.73269 13.9254 2.73446 13.196V11.14C2.73169 10.4106 2.73902 9.68117 2.75646 8.95197L2.76346 8.75797C2.77146 8.53297 2.78146 8.31197 2.79346 8.04597C2.84346 6.98097 3.01146 6.25597 3.25846 5.61797C3.51015 4.95017 3.90468 4.34541 4.41446 3.84597C4.91361 3.33752 5.51764 2.94404 6.18446 2.69297C6.82246 2.44597 7.54746 2.27797 8.61246 2.22797C8.87846 2.21597 9.10046 2.20597 9.32446 2.19797L9.51846 2.19197C10.2476 2.1742 10.9771 2.16653 11.7065 2.16897L13.7625 2.16797ZM12.7345 7.16797C11.4084 7.16797 10.1366 7.69475 9.19892 8.63243C8.26124 9.57012 7.73446 10.8419 7.73446 12.168C7.73446 13.4941 8.26124 14.7658 9.19892 15.7035C10.1366 16.6412 11.4084 17.168 12.7345 17.168C14.0605 17.168 15.3323 16.6412 16.27 15.7035C17.2077 14.7658 17.7345 13.4941 17.7345 12.168C17.7345 10.8419 17.2077 9.57012 16.27 8.63243C15.3323 7.69475 14.0605 7.16797 12.7345 7.16797ZM12.7345 9.16797C13.1284 9.1679 13.5185 9.24544 13.8825 9.39614C14.2465 9.54684 14.5773 9.76777 14.8559 10.0463C15.1345 10.3248 15.3556 10.6555 15.5064 11.0195C15.6572 11.3834 15.7349 11.7735 15.735 12.1675C15.735 12.5614 15.6575 12.9516 15.5068 13.3156C15.3561 13.6796 15.1352 14.0103 14.8566 14.2889C14.5781 14.5676 14.2474 14.7886 13.8835 14.9394C13.5195 15.0902 13.1294 15.1679 12.7355 15.168C11.9398 15.168 11.1767 14.8519 10.6141 14.2893C10.0515 13.7267 9.73546 12.9636 9.73546 12.168C9.73546 11.3723 10.0515 10.6093 10.6141 10.0466C11.1767 9.48404 11.9398 9.16797 12.7355 9.16797M17.9855 5.66797C17.6539 5.66797 17.336 5.79966 17.1016 6.03409C16.8672 6.26851 16.7355 6.58645 16.7355 6.91797C16.7355 7.24949 16.8672 7.56743 17.1016 7.80185C17.336 8.03627 17.6539 8.16797 17.9855 8.16797C18.317 8.16797 18.6349 8.03627 18.8693 7.80185C19.1038 7.56743 19.2355 7.24949 19.2355 6.91797C19.2355 6.58645 19.1038 6.26851 18.8693 6.03409C18.6349 5.79966 18.317 5.66797 17.9855 5.66797Z" fill="white"/>
</svg>
