<svg width="9" height="6" viewBox="0 0 9 6" fill="none" xmlns="http://www.w3.org/2000/svg">
<path d="M3.92971 5.16172L0.932211 1.73547C0.578461 1.33234 0.865961 0.699219 1.40284 0.699219H7.39784C7.51799 0.699116 7.63563 0.733649 7.73666 0.798682C7.83769 0.863715 7.91783 0.956492 7.96749 1.0659C8.01715 1.17531 8.03422 1.29672 8.01666 1.41558C7.9991 1.53444 7.94764 1.64572 7.86846 1.73609L4.87096 5.16109C4.8123 5.22822 4.73995 5.28203 4.65878 5.31889C4.57761 5.35576 4.48949 5.37483 4.40034 5.37483C4.31119 5.37483 4.22307 5.35576 4.14189 5.31889C4.06072 5.28203 3.98837 5.22822 3.92971 5.16109V5.16172Z" fill="#444444"/>
</svg>
