<svg width="12" height="14" viewBox="0 0 12 14" fill="none" xmlns="http://www.w3.org/2000/svg">
<path d="M6.30975 1.00158C6.26911 0.960836 6.22083 0.928511 6.16768 0.906455C6.11453 0.8844 6.05755 0.873047 6 0.873047C5.94245 0.873047 5.88547 0.8844 5.83232 0.906455C5.77917 0.928511 5.73089 0.960836 5.69025 1.00158L0.440251 6.25158C0.399649 6.29228 0.367468 6.34059 0.345548 6.39374C0.323628 6.44689 0.312398 6.50384 0.312501 6.56133V12.6863C0.312501 12.8024 0.358594 12.9136 0.440641 12.9957C0.522689 13.0777 0.633968 13.1238 0.750001 13.1238H4.6875C4.80353 13.1238 4.91481 13.0777 4.99686 12.9957C5.07891 12.9136 5.125 12.8024 5.125 12.6863V9.18633H6.875V12.6863C6.875 12.8024 6.92109 12.9136 7.00314 12.9957C7.08519 13.0777 7.19647 13.1238 7.3125 13.1238H11.25C11.366 13.1238 11.4773 13.0777 11.5594 12.9957C11.6414 12.9136 11.6875 12.8024 11.6875 12.6863V6.56133C11.6876 6.50384 11.6764 6.44689 11.6545 6.39374C11.6325 6.34059 11.6004 6.29228 11.5598 6.25158L10.375 5.0677V2.18633C10.375 2.0703 10.3289 1.95902 10.2469 1.87697C10.1648 1.79492 10.0535 1.74883 9.9375 1.74883H9.0625C8.94647 1.74883 8.83519 1.79492 8.75314 1.87697C8.67109 1.95902 8.625 2.0703 8.625 2.18633V3.3177L6.30975 1.00158ZM1.1875 12.2488V6.74245L6 1.92995L10.8125 6.74245V12.2488H7.75V8.74883C7.75 8.6328 7.70391 8.52152 7.62186 8.43947C7.53981 8.35742 7.42853 8.31133 7.3125 8.31133H4.6875C4.57147 8.31133 4.46019 8.35742 4.37814 8.43947C4.29609 8.52152 4.25 8.6328 4.25 8.74883V12.2488H1.1875Z" fill="#41633D"/>
</svg>
